<svg width="149.000000" height="49.805664" viewBox="0 0 149 49.8057" fill="none" xmlns="http://www.w3.org/2000/svg" xmlns:xlink="http://www.w3.org/1999/xlink">
	<desc>
			Created with Pixso.
	</desc>
	<defs>
		<clipPath id="clip153_594">
			<rect rx="4.500000" width="148.000000" height="48.806091" transform="translate(0.500000 0.500000)" fill="white" fill-opacity="0"/>
		</clipPath>
	</defs>
	<rect rx="4.500000" width="148.000000" height="48.806091" transform="translate(0.500000 0.500000)" fill="#FFFFFF" fill-opacity="0"/>
	<g clip-path="url(#clip153_594)">
		<path d="M137.13 0L11.87 0C11.41 0 10.96 0 10.5 0C10.12 0 9.74 0.01 9.36 0.01C8.52 0.02 7.69 0.1 6.86 0.23C6.04 0.37 5.24 0.64 4.5 1.01C3.75 1.4 3.07 1.89 2.48 2.48C1.89 3.07 1.39 3.75 1.02 4.5C0.64 5.25 0.37 6.04 0.24 6.87C0.1 7.69 0.02 8.53 0.01 9.36C0 9.75 0 10.13 0 10.51L0 39.29C0 39.68 0 40.05 0.01 40.44C0.02 41.27 0.1 42.11 0.24 42.93C0.37 43.76 0.64 44.56 1.02 45.3C1.39 46.05 1.89 46.73 2.48 47.31C3.07 47.91 3.75 48.4 4.5 48.78C5.24 49.16 6.04 49.42 6.86 49.57C7.69 49.7 8.52 49.77 9.36 49.79C9.74 49.79 10.12 49.8 10.5 49.8C10.96 49.8 11.41 49.8 11.87 49.8L137.13 49.8C137.58 49.8 138.03 49.8 138.48 49.8C138.86 49.8 139.25 49.79 139.63 49.79C140.46 49.78 141.29 49.7 142.12 49.57C142.94 49.42 143.75 49.16 144.49 48.78C145.24 48.4 145.92 47.91 146.51 47.31C147.1 46.72 147.6 46.04 147.98 45.3C148.35 44.56 148.61 43.76 148.75 42.93C148.89 42.11 148.97 41.27 148.98 40.44C148.99 40.05 148.99 39.68 148.99 39.29C149 38.84 149 38.39 149 37.93L149 11.87C149 11.41 149 10.96 148.99 10.51C148.99 10.13 148.99 9.75 148.98 9.36C148.97 8.53 148.89 7.69 148.75 6.87C148.61 6.05 148.35 5.25 147.98 4.5C147.21 3 145.99 1.78 144.49 1.01C143.75 0.64 142.94 0.37 142.12 0.23C141.29 0.1 140.46 0.02 139.63 0.01C139.25 0.01 138.86 0 138.48 0C138.03 0 137.58 0 137.13 0L137.13 0Z" fill="#000000" fill-opacity="1.000000" fill-rule="nonzero"/>
		<path d="M10.51 48.71C10.13 48.71 9.76 48.71 9.38 48.7C8.6 48.69 7.83 48.62 7.06 48.5C6.34 48.37 5.64 48.14 4.99 47.81C4.35 47.49 3.76 47.06 3.25 46.55C2.74 46.04 2.31 45.45 1.98 44.81C1.65 44.16 1.43 43.46 1.31 42.75C1.18 41.97 1.11 41.19 1.1 40.41C1.09 40.15 1.08 39.27 1.08 39.27L1.08 10.51C1.08 10.51 1.09 9.65 1.1 9.4C1.11 8.62 1.18 7.84 1.31 7.07C1.43 6.34 1.65 5.65 1.98 5C2.31 4.35 2.73 3.76 3.25 3.25C3.76 2.74 4.35 2.31 4.99 1.98C5.64 1.65 6.34 1.43 7.05 1.3C7.82 1.18 8.6 1.11 9.39 1.1L10.51 1.08L138.47 1.08L139.61 1.1C140.39 1.11 141.16 1.18 141.92 1.3C142.65 1.43 143.35 1.66 144 1.99C145.3 2.65 146.35 3.7 147.01 5C147.34 5.65 147.56 6.34 147.68 7.05C147.81 7.83 147.88 8.61 147.89 9.4C147.9 9.75 147.9 10.13 147.9 10.51C147.91 10.98 147.91 11.42 147.91 11.87L147.91 37.93C147.91 38.38 147.91 38.82 147.9 39.27C147.9 39.67 147.9 40.04 147.89 40.42C147.88 41.2 147.81 41.97 147.68 42.73C147.56 43.46 147.34 44.16 147.01 44.81C146.68 45.45 146.25 46.03 145.74 46.54C145.24 47.05 144.65 47.48 144 47.81C143.35 48.14 142.65 48.37 141.92 48.5C141.16 48.62 140.38 48.69 139.6 48.7C139.23 48.71 138.85 48.71 138.48 48.71L137.13 48.71L10.51 48.71Z" fill="#000000" fill-opacity="1.000000" fill-rule="nonzero"/>
		<path d="M30.84 25.27C30.85 24.23 31.13 23.21 31.64 22.31C32.15 21.41 32.88 20.65 33.77 20.1C33.21 19.3 32.47 18.64 31.6 18.17C30.74 17.7 29.78 17.45 28.8 17.42C26.71 17.2 24.68 18.67 23.62 18.67C22.53 18.67 20.89 17.44 19.12 17.47C17.98 17.51 16.87 17.84 15.89 18.44C14.92 19.03 14.11 19.87 13.55 20.87C11.15 25.04 12.94 31.17 15.25 34.54C16.4 36.19 17.75 38.03 19.52 37.97C21.24 37.89 21.89 36.86 23.97 36.86C26.04 36.86 26.64 37.97 28.45 37.92C30.3 37.89 31.47 36.27 32.58 34.6C33.41 33.42 34.05 32.12 34.47 30.75C33.39 30.29 32.48 29.53 31.83 28.56C31.18 27.58 30.84 26.44 30.84 25.27Z" fill="#FFFFFF" fill-opacity="1.000000" fill-rule="nonzero"/>
		<path d="M27.43 15.2C28.44 13.99 28.94 12.43 28.82 10.85C27.28 11.01 25.85 11.75 24.83 12.92C24.33 13.49 23.94 14.15 23.7 14.87C23.46 15.59 23.35 16.35 23.4 17.1C24.18 17.11 24.94 16.95 25.64 16.62C26.34 16.29 26.95 15.8 27.43 15.2Z" fill="#FFFFFF" fill-opacity="1.000000" fill-rule="nonzero"/>
		<path d="M52.67 33.79L46.77 33.79L45.36 37.97L42.86 37.97L48.44 22.5L51.04 22.5L56.62 37.97L54.08 37.97L52.67 33.79ZM47.38 31.86L52.06 31.86L49.75 25.08L49.69 25.08L47.38 31.86Z" fill="#FFFFFF" fill-opacity="1.000000" fill-rule="nonzero"/>
		<path d="M68.68 32.33C68.68 35.83 66.8 38.08 63.97 38.08C63.25 38.12 62.54 37.96 61.91 37.61C61.29 37.26 60.77 36.74 60.42 36.11L60.37 36.11L60.37 41.7L58.06 41.7L58.06 26.69L60.3 26.69L60.3 28.57L60.34 28.57C60.7 27.94 61.23 27.43 61.86 27.08C62.49 26.72 63.21 26.55 63.93 26.58C66.79 26.58 68.68 28.84 68.68 32.33ZM66.3 32.33C66.3 30.05 65.12 28.55 63.32 28.55C61.55 28.55 60.36 30.08 60.36 32.33C60.36 34.6 61.55 36.12 63.32 36.12C65.12 36.12 66.3 34.63 66.3 32.33Z" fill="#FFFFFF" fill-opacity="1.000000" fill-rule="nonzero"/>
		<path d="M81.08 32.33C81.08 35.83 79.21 38.08 76.38 38.08C75.66 38.12 74.95 37.96 74.32 37.61C73.7 37.26 73.18 36.74 72.83 36.11L72.78 36.11L72.78 41.7L70.46 41.7L70.46 26.69L72.7 26.69L72.7 28.57L72.75 28.57C73.11 27.94 73.63 27.43 74.27 27.08C74.9 26.72 75.61 26.55 76.34 26.58C79.2 26.58 81.08 28.84 81.08 32.33ZM78.71 32.33C78.71 30.05 77.53 28.55 75.73 28.55C73.96 28.55 72.77 30.08 72.77 32.33C72.77 34.6 73.96 36.12 75.73 36.12C77.53 36.12 78.71 34.63 78.71 32.33L78.71 32.33Z" fill="#FFFFFF" fill-opacity="1.000000" fill-rule="nonzero"/>
		<path d="M89.28 33.66C89.46 35.19 90.95 36.2 92.98 36.2C94.93 36.2 96.34 35.19 96.34 33.81C96.34 32.61 95.49 31.89 93.48 31.4L91.48 30.92C88.64 30.23 87.32 28.9 87.32 26.75C87.32 24.08 89.65 22.25 92.95 22.25C96.22 22.25 98.46 24.08 98.53 26.75L96.2 26.75C96.06 25.2 94.78 24.27 92.92 24.27C91.05 24.27 89.78 25.21 89.78 26.59C89.78 27.68 90.59 28.32 92.59 28.82L94.29 29.23C97.46 29.98 98.78 31.26 98.78 33.52C98.78 36.41 96.47 38.22 92.81 38.22C89.38 38.22 87.07 36.46 86.92 33.66L89.28 33.66Z" fill="#FFFFFF" fill-opacity="1.000000" fill-rule="nonzero"/>
		<path d="M103.77 24.03L103.77 26.69L105.92 26.69L105.92 28.53L103.77 28.53L103.77 34.74C103.77 35.71 104.2 36.16 105.15 36.16C105.4 36.15 105.65 36.13 105.91 36.1L105.91 37.92C105.48 38 105.05 38.04 104.62 38.03C102.34 38.03 101.45 37.17 101.45 34.99L101.45 28.53L99.81 28.53L99.81 26.69L101.45 26.69L101.45 24.03L103.77 24.03Z" fill="#FFFFFF" fill-opacity="1.000000" fill-rule="nonzero"/>
		<path d="M107.16 32.33C107.16 28.78 109.25 26.55 112.51 26.55C115.77 26.55 117.85 28.78 117.85 32.33C117.85 35.89 115.79 38.11 112.51 38.11C109.23 38.11 107.16 35.89 107.16 32.33ZM115.5 32.33C115.5 29.9 114.38 28.46 112.51 28.46C110.63 28.46 109.52 29.91 109.52 32.33C109.52 34.77 110.63 36.2 112.51 36.2C114.38 36.2 115.5 34.77 115.5 32.33L115.5 32.33Z" fill="#FFFFFF" fill-opacity="1.000000" fill-rule="nonzero"/>
		<path d="M119.76 26.69L121.97 26.69L121.97 28.61L122.02 28.61C122.17 28.01 122.52 27.48 123.02 27.11C123.51 26.74 124.12 26.55 124.73 26.58C125 26.57 125.27 26.6 125.53 26.66L125.53 28.83C125.19 28.72 124.84 28.68 124.49 28.69C124.15 28.67 123.82 28.73 123.5 28.86C123.19 28.99 122.91 29.18 122.68 29.43C122.46 29.67 122.28 29.97 122.18 30.29C122.07 30.61 122.04 30.95 122.08 31.28L122.08 37.97L119.76 37.97L119.76 26.69Z" fill="#FFFFFF" fill-opacity="1.000000" fill-rule="nonzero"/>
		<path d="M136.2 34.66C135.88 36.7 133.89 38.11 131.34 38.11C128.06 38.11 126.03 35.91 126.03 32.38C126.03 28.85 128.07 26.55 131.24 26.55C134.36 26.55 136.32 28.7 136.32 32.12L136.32 32.91L128.36 32.91L128.36 33.05C128.33 33.46 128.38 33.88 128.51 34.27C128.65 34.67 128.87 35.03 129.16 35.33C129.44 35.63 129.79 35.87 130.18 36.03C130.56 36.18 130.98 36.26 131.39 36.24C131.94 36.29 132.49 36.17 132.96 35.88C133.43 35.59 133.79 35.16 134 34.66L136.2 34.66ZM128.37 31.29L134.01 31.29C134.03 30.92 133.97 30.54 133.84 30.19C133.71 29.84 133.51 29.52 133.25 29.26C132.99 28.99 132.68 28.78 132.33 28.63C131.99 28.49 131.62 28.42 131.24 28.43C130.87 28.43 130.49 28.5 130.14 28.64C129.8 28.79 129.48 29 129.21 29.26C128.95 29.53 128.73 29.84 128.59 30.19C128.45 30.54 128.37 30.91 128.37 31.29L128.37 31.29Z" fill="#FFFFFF" fill-opacity="1.000000" fill-rule="nonzero"/>
		<path d="M47.09 10.87C47.58 10.83 48.07 10.91 48.52 11.08C48.97 11.26 49.38 11.53 49.72 11.88C50.05 12.24 50.3 12.66 50.45 13.12C50.61 13.59 50.65 14.08 50.59 14.56C50.59 16.93 49.31 18.3 47.09 18.3L44.41 18.3L44.41 10.87L47.09 10.87ZM45.57 17.25L46.97 17.25C47.31 17.27 47.66 17.21 47.98 17.08C48.3 16.95 48.59 16.75 48.83 16.49C49.06 16.24 49.24 15.93 49.34 15.6C49.44 15.27 49.47 14.92 49.42 14.57C49.46 14.23 49.43 13.88 49.33 13.55C49.23 13.22 49.05 12.92 48.82 12.67C48.58 12.41 48.3 12.21 47.98 12.08C47.66 11.96 47.31 11.9 46.97 11.92L45.57 11.92L45.57 17.25Z" fill="#FFFFFF" fill-opacity="1.000000" fill-rule="nonzero"/>
		<path d="M51.89 15.49C51.86 15.12 51.9 14.75 52.02 14.4C52.14 14.05 52.32 13.72 52.57 13.45C52.82 13.18 53.13 12.96 53.46 12.81C53.8 12.66 54.17 12.58 54.54 12.58C54.91 12.58 55.27 12.66 55.61 12.81C55.95 12.96 56.26 13.18 56.5 13.45C56.75 13.72 56.94 14.05 57.06 14.4C57.18 14.75 57.22 15.12 57.18 15.49C57.22 15.86 57.18 16.23 57.06 16.58C56.94 16.93 56.76 17.26 56.51 17.53C56.26 17.81 55.95 18.03 55.61 18.18C55.28 18.33 54.91 18.4 54.54 18.4C54.17 18.4 53.8 18.33 53.46 18.18C53.12 18.03 52.82 17.81 52.57 17.53C52.32 17.26 52.13 16.93 52.02 16.58C51.9 16.23 51.86 15.86 51.89 15.49ZM56.04 15.49C56.04 14.27 55.5 13.56 54.54 13.56C53.58 13.56 53.04 14.27 53.04 15.49C53.04 16.71 53.58 17.42 54.54 17.42C55.5 17.42 56.04 16.71 56.04 15.49L56.04 15.49Z" fill="#FFFFFF" fill-opacity="1.000000" fill-rule="nonzero"/>
		<path d="M64.21 18.3L63.06 18.3L61.91 14.17L61.82 14.17L60.66 18.3L59.53 18.3L57.98 12.69L59.1 12.69L60.11 16.97L60.19 16.97L61.34 12.69L62.41 12.69L63.56 16.97L63.65 16.97L64.64 12.69L65.75 12.69L64.21 18.3Z" fill="#FFFFFF" fill-opacity="1.000000" fill-rule="nonzero"/>
		<path d="M67.05 12.69L68.12 12.69L68.12 13.58L68.2 13.58C68.34 13.26 68.58 12.99 68.88 12.81C69.18 12.63 69.52 12.55 69.87 12.58C70.14 12.56 70.42 12.6 70.67 12.7C70.93 12.8 71.16 12.96 71.34 13.16C71.53 13.36 71.67 13.6 71.75 13.86C71.83 14.12 71.85 14.4 71.81 14.67L71.81 18.3L70.71 18.3L70.71 14.94C70.71 14.04 70.31 13.59 69.5 13.59C69.31 13.59 69.13 13.62 68.95 13.69C68.78 13.76 68.63 13.86 68.5 14C68.37 14.13 68.28 14.29 68.22 14.47C68.16 14.64 68.14 14.83 68.16 15.02L68.16 18.3L67.05 18.3L67.05 12.69Z" fill="#FFFFFF" fill-opacity="1.000000" fill-rule="nonzero"/>
		<path d="M73.58 10.5L74.68 10.5L74.68 18.3L73.58 18.3L73.58 10.5Z" fill="#FFFFFF" fill-opacity="1.000000" fill-rule="nonzero"/>
		<path d="M76.22 15.49C76.19 15.12 76.23 14.75 76.35 14.4C76.46 14.05 76.65 13.72 76.9 13.45C77.15 13.18 77.45 12.96 77.79 12.81C78.13 12.66 78.5 12.58 78.87 12.58C79.24 12.58 79.6 12.66 79.94 12.81C80.28 12.96 80.58 13.18 80.83 13.45C81.08 13.72 81.27 14.05 81.39 14.4C81.5 14.75 81.55 15.12 81.51 15.49C81.55 15.86 81.5 16.23 81.39 16.58C81.27 16.93 81.08 17.26 80.83 17.53C80.58 17.81 80.28 18.03 79.94 18.18C79.6 18.33 79.24 18.4 78.87 18.4C78.5 18.4 78.13 18.33 77.79 18.18C77.45 18.03 77.15 17.81 76.9 17.53C76.65 17.26 76.46 16.93 76.34 16.58C76.23 16.23 76.19 15.86 76.22 15.49ZM80.37 15.49C80.37 14.28 79.83 13.56 78.87 13.56C77.91 13.56 77.36 14.28 77.36 15.49C77.36 16.72 77.91 17.42 78.87 17.42C79.83 17.42 80.37 16.71 80.37 15.49L80.37 15.49Z" fill="#FFFFFF" fill-opacity="1.000000" fill-rule="nonzero"/>
		<path d="M82.67 16.71C82.67 15.7 83.43 15.12 84.76 15.04L86.28 14.95L86.28 14.46C86.28 13.87 85.89 13.54 85.13 13.54C84.51 13.54 84.09 13.77 83.96 14.16L82.89 14.16C83 13.2 83.91 12.58 85.18 12.58C86.59 12.58 87.38 13.28 87.38 14.46L87.38 18.3L86.32 18.3L86.32 17.51L86.23 17.51C86.05 17.79 85.8 18.02 85.5 18.18C85.21 18.33 84.88 18.4 84.54 18.39C84.31 18.41 84.07 18.39 83.85 18.31C83.62 18.24 83.41 18.12 83.24 17.96C83.06 17.81 82.92 17.61 82.82 17.4C82.73 17.18 82.68 16.95 82.67 16.71ZM86.28 16.23L86.28 15.76L84.91 15.85C84.14 15.9 83.79 16.16 83.79 16.66C83.79 17.16 84.22 17.46 84.83 17.46C85 17.47 85.18 17.46 85.35 17.4C85.52 17.35 85.68 17.27 85.81 17.15C85.95 17.04 86.06 16.9 86.14 16.74C86.22 16.58 86.27 16.41 86.28 16.23Z" fill="#FFFFFF" fill-opacity="1.000000" fill-rule="nonzero"/>
		<path d="M88.83 15.49C88.83 13.72 89.75 12.6 91.16 12.6C91.51 12.58 91.86 12.66 92.16 12.84C92.47 13.01 92.72 13.27 92.88 13.58L92.96 13.58L92.96 10.5L94.07 10.5L94.07 18.3L93.01 18.3L93.01 17.41L92.92 17.41C92.75 17.72 92.49 17.97 92.18 18.15C91.87 18.32 91.52 18.4 91.16 18.39C89.74 18.39 88.83 17.27 88.83 15.49ZM89.98 15.49C89.98 16.68 90.54 17.4 91.48 17.4C92.41 17.4 92.98 16.67 92.98 15.5C92.98 14.33 92.4 13.59 91.48 13.59C90.54 13.59 89.98 14.31 89.98 15.49L89.98 15.49Z" fill="#FFFFFF" fill-opacity="1.000000" fill-rule="nonzero"/>
		<path d="M98.65 15.49C98.61 15.12 98.66 14.75 98.77 14.4C98.89 14.05 99.08 13.72 99.33 13.45C99.58 13.18 99.88 12.96 100.22 12.81C100.56 12.66 100.92 12.58 101.29 12.58C101.66 12.58 102.03 12.66 102.37 12.81C102.71 12.96 103.01 13.18 103.26 13.45C103.51 13.72 103.7 14.05 103.81 14.4C103.93 14.75 103.97 15.12 103.94 15.49C103.97 15.86 103.93 16.23 103.82 16.58C103.7 16.93 103.51 17.26 103.26 17.53C103.01 17.81 102.71 18.03 102.37 18.18C102.03 18.33 101.66 18.4 101.29 18.4C100.92 18.4 100.56 18.33 100.22 18.18C99.88 18.03 99.57 17.81 99.33 17.53C99.08 17.26 98.89 16.93 98.77 16.58C98.65 16.23 98.61 15.86 98.65 15.49ZM102.8 15.49C102.8 14.27 102.25 13.56 101.3 13.56C100.33 13.56 99.79 14.27 99.79 15.49C99.79 16.71 100.33 17.42 101.3 17.42C102.25 17.42 102.8 16.71 102.8 15.49Z" fill="#FFFFFF" fill-opacity="1.000000" fill-rule="nonzero"/>
		<path d="M105.42 12.69L106.49 12.69L106.49 13.58L106.57 13.58C106.71 13.26 106.95 12.99 107.25 12.81C107.55 12.63 107.9 12.55 108.24 12.58C108.52 12.56 108.79 12.6 109.05 12.7C109.3 12.8 109.53 12.96 109.72 13.16C109.9 13.36 110.04 13.6 110.12 13.86C110.2 14.12 110.22 14.4 110.18 14.67L110.18 18.3L109.08 18.3L109.08 14.94C109.08 14.04 108.69 13.59 107.87 13.59C107.68 13.59 107.5 13.62 107.33 13.69C107.15 13.76 107 13.86 106.87 14C106.74 14.13 106.65 14.29 106.59 14.47C106.53 14.64 106.51 14.83 106.53 15.02L106.53 18.3L105.42 18.3L105.42 12.69Z" fill="#FFFFFF" fill-opacity="1.000000" fill-rule="nonzero"/>
		<path d="M116.44 11.29L116.44 12.72L117.65 12.72L117.65 13.65L116.44 13.65L116.44 16.53C116.44 17.12 116.68 17.37 117.23 17.37C117.37 17.37 117.51 17.37 117.65 17.35L117.65 18.27C117.45 18.31 117.25 18.33 117.05 18.33C115.82 18.33 115.33 17.89 115.33 16.81L115.33 13.65L114.44 13.65L114.44 12.72L115.33 12.72L115.33 11.29L116.44 11.29Z" fill="#FFFFFF" fill-opacity="1.000000" fill-rule="nonzero"/>
		<path d="M119.16 10.5L120.26 10.5L120.26 13.59L120.35 13.59C120.49 13.27 120.74 13 121.04 12.82C121.35 12.64 121.7 12.56 122.06 12.59C122.33 12.57 122.6 12.62 122.85 12.72C123.1 12.82 123.33 12.98 123.51 13.18C123.7 13.38 123.84 13.62 123.92 13.87C124 14.13 124.02 14.41 123.99 14.68L123.99 18.3L122.88 18.3L122.88 14.95C122.88 14.05 122.46 13.6 121.68 13.6C121.49 13.58 121.3 13.61 121.12 13.68C120.94 13.74 120.78 13.85 120.64 13.98C120.51 14.12 120.41 14.28 120.34 14.46C120.28 14.64 120.25 14.83 120.27 15.02L120.27 18.3L119.16 18.3L119.16 10.5Z" fill="#FFFFFF" fill-opacity="1.000000" fill-rule="nonzero"/>
		<path d="M130.44 16.78C130.29 17.29 129.96 17.74 129.52 18.03C129.08 18.33 128.54 18.46 128.01 18.4C127.64 18.41 127.27 18.34 126.93 18.2C126.59 18.05 126.29 17.83 126.05 17.56C125.8 17.28 125.62 16.96 125.51 16.6C125.4 16.25 125.37 15.88 125.42 15.51C125.37 15.14 125.4 14.77 125.51 14.41C125.62 14.06 125.8 13.73 126.04 13.46C126.29 13.18 126.59 12.96 126.93 12.81C127.27 12.65 127.63 12.58 128 12.58C129.57 12.58 130.51 13.65 130.51 15.41L130.51 15.79L126.55 15.79L126.55 15.86C126.53 16.06 126.56 16.27 126.62 16.46C126.69 16.66 126.8 16.84 126.94 16.99C127.08 17.14 127.25 17.26 127.44 17.34C127.63 17.42 127.83 17.46 128.04 17.46C128.31 17.49 128.57 17.45 128.81 17.33C129.05 17.2 129.24 17.01 129.37 16.78L130.44 16.78ZM126.55 14.98L129.38 14.98C129.39 14.79 129.37 14.6 129.3 14.42C129.24 14.24 129.14 14.08 129.01 13.94C128.88 13.81 128.72 13.7 128.55 13.63C128.38 13.55 128.19 13.52 128 13.52C127.81 13.52 127.62 13.56 127.44 13.63C127.26 13.7 127.1 13.81 126.97 13.94C126.83 14.08 126.72 14.24 126.65 14.42C126.58 14.59 126.54 14.78 126.55 14.98L126.55 14.98Z" fill="#FFFFFF" fill-opacity="1.000000" fill-rule="nonzero"/>
	</g>
	<rect rx="4.500000" width="148.000000" height="48.806091" transform="translate(0.500000 0.500000)" stroke="#FFFFFF" stroke-opacity="1.000000" stroke-width="1.000000"/>
</svg>
