<svg width="20.000000" height="18.000000" viewBox="0 0 20 18" fill="none" xmlns="http://www.w3.org/2000/svg" xmlns:xlink="http://www.w3.org/1999/xlink">
	<desc>
			Created with Pixso.
	</desc>
	<defs/>
	<path id="Vector" d="M14.93 0C16.28 0 17.57 0.52 18.51 1.48C19.46 2.43 20 3.7 20 5.04L20 12.95C20 15.74 17.73 18 14.93 18L5.06 18C2.26 18 0 15.74 0 12.95L0 5.04C0 2.25 2.25 0 5.06 0L14.93 0ZM16.07 5.2C15.86 5.18 15.66 5.25 15.5 5.39L11 9C10.42 9.48 9.58 9.48 9 9L4.5 5.39C4.18 5.16 3.75 5.2 3.5 5.47C3.23 5.74 3.2 6.16 3.42 6.47L3.56 6.6L8.1 10.14C8.67 10.58 9.34 10.83 10.06 10.83C10.76 10.83 11.46 10.58 12.01 10.14L16.53 6.54L16.61 6.45C16.84 6.16 16.84 5.75 16.59 5.45C16.45 5.31 16.26 5.22 16.07 5.2Z" fill="#1DCF9F" fill-opacity="1.000000" fill-rule="nonzero"/>
</svg>
