<svg width="168.750000" height="50.000000" viewBox="0 0 168.75 50" fill="none" xmlns="http://www.w3.org/2000/svg" xmlns:xlink="http://www.w3.org/1999/xlink">
	<desc>
			Created with Pixso.
	</desc>
	<defs>
		<clipPath id="clip153_629">
			<rect rx="4.500000" width="167.750000" height="49.000000" transform="translate(0.500000 0.500000)" fill="white" fill-opacity="0"/>
		</clipPath>
		<linearGradient x1="27.137207" y1="10.883299" x2="6.245400" y2="31.861410" id="paint_linear_153_634_0" gradientUnits="userSpaceOnUse">
			<stop stop-color="#00A0FF"/>
			<stop offset="0.006570" stop-color="#00A1FF"/>
			<stop offset="0.260100" stop-color="#00BEFF"/>
			<stop offset="0.512200" stop-color="#00D2FF"/>
			<stop offset="0.760400" stop-color="#00DFFF"/>
			<stop offset="1.000000" stop-color="#00E3FF"/>
		</linearGradient>
		<linearGradient x1="42.119205" y1="25.000353" x2="11.997032" y2="25.000353" id="paint_linear_153_635_0" gradientUnits="userSpaceOnUse">
			<stop stop-color="#FFE000"/>
			<stop offset="0.408700" stop-color="#FFBD00"/>
			<stop offset="0.775400" stop-color="#FFA500"/>
			<stop offset="1.000000" stop-color="#FF9C00"/>
		</linearGradient>
		<linearGradient x1="30.905960" y1="27.871675" x2="2.574839" y2="56.319180" id="paint_linear_153_636_0" gradientUnits="userSpaceOnUse">
			<stop stop-color="#FF3A44"/>
			<stop offset="1.000000" stop-color="#C31162"/>
		</linearGradient>
		<linearGradient x1="9.081229" y1="0.223960" x2="21.732111" y2="12.927184" id="paint_linear_153_637_0" gradientUnits="userSpaceOnUse">
			<stop stop-color="#32A071"/>
			<stop offset="0.068500" stop-color="#2DA771"/>
			<stop offset="0.476200" stop-color="#15CF74"/>
			<stop offset="0.800900" stop-color="#06E775"/>
			<stop offset="1.000000" stop-color="#00F076"/>
		</linearGradient>
	</defs>
	<rect rx="4.500000" width="167.750000" height="49.000000" transform="translate(0.500000 0.500000)" fill="#FFFFFF" fill-opacity="0"/>
	<g clip-path="url(#clip153_629)">
		<path d="M162.49 50L6.25 50C2.8 50 0 47.18 0 43.75L0 6.25C0 2.8 2.8 0 6.25 0L162.49 0C165.94 0 168.75 2.8 168.75 6.25L168.75 43.75C168.75 47.18 165.94 50 162.49 50Z" fill="#000000" fill-opacity="1.000000" fill-rule="evenodd"/>
		<path d="M162.49 1C165.38 1 167.75 3.36 167.75 6.25L167.75 43.75C167.75 46.63 165.4 48.99 162.49 48.99L6.25 48.99C3.36 48.99 0.99 46.63 0.99 43.75L0.99 6.25C0.99 3.36 3.34 1 6.25 1L162.49 1ZM162.49 0L6.25 0C2.8 0 0 2.81 0 6.25L0 43.75C0 47.19 2.8 50 6.25 50L162.49 50C165.94 50 168.75 47.19 168.75 43.75L168.75 6.25C168.75 2.81 165.94 0 162.49 0Z" fill="#000000" fill-opacity="1.000000" fill-rule="evenodd"/>
		<path d="M88.89 16.54C87.77 16.54 86.82 16.14 86.07 15.36C85.32 14.6 84.9 13.56 84.92 12.49C84.92 11.35 85.31 10.39 86.07 9.63C86.81 8.85 87.76 8.45 88.89 8.45C90 8.45 90.95 8.85 91.72 9.63C92.48 10.42 92.86 11.38 92.86 12.49C92.85 13.63 92.46 14.6 91.72 15.36C90.97 16.14 90.02 16.54 88.89 16.54ZM55.36 16.54C54.26 16.54 53.3 16.15 52.52 15.37C51.75 14.61 51.35 13.64 51.35 12.5C51.35 11.35 51.75 10.38 52.52 9.62C53.29 8.84 54.24 8.45 55.36 8.45C55.91 8.45 56.44 8.56 56.95 8.79C57.45 9 57.86 9.29 58.16 9.65L58.23 9.74L57.39 10.57L57.3 10.47C56.83 9.9 56.19 9.62 55.35 9.62C54.6 9.62 53.94 9.89 53.4 10.42C52.86 10.96 52.58 11.65 52.58 12.5C52.58 13.34 52.86 14.04 53.4 14.57C53.94 15.1 54.6 15.37 55.35 15.37C56.15 15.37 56.82 15.1 57.35 14.57C57.66 14.26 57.85 13.83 57.92 13.27L55.22 13.27L55.22 12.11L59.08 12.11L59.09 12.21C59.12 12.41 59.15 12.61 59.15 12.8C59.15 13.88 58.83 14.75 58.19 15.39C57.46 16.15 56.51 16.54 55.36 16.54ZM99.94 16.37L98.76 16.37L95.11 10.52L95.15 11.57L95.15 16.37L93.96 16.37L93.96 8.62L95.31 8.62L95.35 8.68L98.77 14.19L98.74 13.14L98.74 8.62L99.94 8.62L99.94 16.37ZM79.96 16.37L78.75 16.37L78.75 9.79L76.66 9.79L76.66 8.62L82.04 8.62L82.04 9.79L79.96 9.79L79.96 16.37L79.96 16.37ZM75.68 16.37L74.48 16.37L74.48 8.62L75.68 8.62L75.68 16.37ZM68.93 16.37L67.73 16.37L67.73 9.79L65.64 9.79L65.64 8.62L71.02 8.62L71.02 9.79L68.93 9.79L68.93 16.37ZM64.88 16.36L60.27 16.36L60.27 8.62L64.88 8.62L64.88 9.79L61.48 9.79L61.48 11.91L64.55 11.91L64.55 13.07L61.48 13.07L61.48 15.19L64.88 15.19L64.88 16.36ZM86.95 14.56C87.48 15.1 88.14 15.37 88.89 15.37C89.67 15.37 90.31 15.1 90.84 14.56C91.37 14.03 91.63 13.33 91.63 12.5C91.63 11.66 91.37 10.96 90.84 10.43C90.31 9.89 89.65 9.62 88.9 9.62C88.12 9.62 87.48 9.89 86.95 10.43C86.43 10.96 86.16 11.66 86.16 12.5C86.16 13.33 86.42 14.03 86.95 14.56Z" fill="#FFFFFF" fill-opacity="1.000000" fill-rule="nonzero"/>
		<path d="M84.81 27.19C81.88 27.19 79.5 29.42 79.5 32.51C79.5 35.56 81.89 37.83 84.81 37.83C87.74 37.83 90.12 35.58 90.12 32.51C90.12 29.42 87.74 27.19 84.81 27.19ZM84.81 35.72C83.21 35.72 81.82 34.38 81.82 32.5C81.82 30.58 83.21 29.27 84.81 29.27C86.42 29.27 87.8 30.58 87.8 32.5C87.8 34.4 86.42 35.72 84.81 35.72ZM73.22 27.19C70.29 27.19 67.91 29.42 67.91 32.51C67.91 35.56 70.3 37.83 73.22 37.83C76.16 37.83 78.53 35.58 78.53 32.51C78.53 29.42 76.15 27.19 73.22 27.19ZM73.22 35.72C71.62 35.72 70.24 34.38 70.24 32.5C70.24 30.58 71.62 29.27 73.22 29.27C74.83 29.27 76.21 30.58 76.21 32.5C76.21 34.4 74.83 35.72 73.22 35.72ZM59.43 28.81L59.43 31.06L64.81 31.06C64.65 32.33 64.23 33.26 63.6 33.9C62.81 34.69 61.59 35.55 59.44 35.55C56.14 35.55 53.55 32.87 53.55 29.55C53.55 26.23 56.14 23.55 59.44 23.55C61.23 23.55 62.53 24.26 63.5 25.16L65.09 23.56C63.74 22.27 61.96 21.29 59.46 21.29C54.92 21.29 51.12 25 51.12 29.54C51.12 34.09 54.92 37.79 59.46 37.79C61.91 37.79 63.74 36.98 65.2 35.47C66.68 33.98 67.15 31.88 67.15 30.19C67.15 29.66 67.11 29.19 67.02 28.79L59.43 28.79C59.43 28.79 59.43 28.81 59.43 28.81ZM115.84 30.57C115.39 29.37 114.05 27.18 111.3 27.18C108.58 27.18 106.31 29.33 106.31 32.5C106.31 35.48 108.55 37.81 111.57 37.81C113.99 37.81 115.4 36.33 115.98 35.45L114.18 34.24C113.58 35.13 112.75 35.72 111.58 35.72C110.39 35.72 109.56 35.17 109 34.1L116.09 31.16C116.09 31.16 115.84 30.57 115.84 30.57ZM108.62 32.34C108.56 30.29 110.21 29.24 111.38 29.24C112.31 29.24 113.08 29.7 113.35 30.37L108.62 32.34ZM102.86 37.5L105.19 37.5L105.19 21.87L102.86 21.87L102.86 37.5ZM99.04 28.37L98.96 28.37C98.44 27.75 97.44 27.18 96.17 27.18C93.53 27.18 91.09 29.51 91.09 32.51C91.09 35.5 93.51 37.8 96.17 37.8C97.42 37.8 98.44 37.23 98.96 36.59L99.04 36.59L99.04 37.36C99.04 39.39 97.96 40.48 96.22 40.48C94.8 40.48 93.91 39.45 93.55 38.59L91.53 39.44C92.11 40.84 93.66 42.58 96.22 42.58C98.95 42.58 101.26 40.97 101.26 37.04L101.26 27.5L99.06 27.5L99.06 28.37C99.06 28.37 99.04 28.37 99.04 28.37ZM96.38 35.72C94.77 35.72 93.43 34.37 93.43 32.51C93.43 30.63 94.77 29.28 96.38 29.28C97.96 29.28 99.2 30.65 99.2 32.51C99.21 34.37 97.97 35.72 96.38 35.72ZM126.72 21.87L121.16 21.87L121.16 37.5L123.49 37.5L123.49 31.58L126.73 31.58C129.3 31.58 131.83 29.71 131.83 26.73C131.83 23.76 129.31 21.87 126.72 21.87ZM126.79 29.4L123.49 29.4L123.49 24.04L126.79 24.04C128.53 24.04 129.52 25.48 129.52 26.72C129.52 27.94 128.52 29.4 126.79 29.4ZM141.15 27.16C139.46 27.16 137.72 27.91 137 29.55L139.06 30.41C139.5 29.55 140.32 29.26 141.18 29.26C142.38 29.26 143.6 29.98 143.63 31.27L143.63 31.44C143.21 31.2 142.3 30.84 141.21 30.84C138.98 30.84 136.72 32.06 136.72 34.35C136.72 36.45 138.55 37.79 140.58 37.79C142.14 37.79 143 37.09 143.54 36.27L143.62 36.27L143.62 37.48L145.87 37.48L145.87 31.49C145.87 28.71 143.8 27.16 141.15 27.16ZM140.86 35.72C140.1 35.72 139.03 35.34 139.03 34.38C139.03 33.17 140.36 32.72 141.5 32.72C142.52 32.72 143 32.94 143.61 33.24C143.44 34.65 142.27 35.71 140.86 35.72ZM154.04 27.5L151.37 34.27L151.29 34.27L148.52 27.5L146.02 27.5L150.17 36.97L147.81 42.23L150.23 42.23L156.61 27.5L154.04 27.5ZM133.11 37.5L135.44 37.5L135.44 21.87L133.11 21.87L133.11 37.5Z" fill="#FFFFFF" fill-opacity="1.000000" fill-rule="evenodd"/>
		<path d="M12.98 9.41C12.62 9.8 12.42 10.4 12.42 11.18L12.42 38.82C12.42 39.6 12.62 40.19 13 40.57L13.09 40.65L28.52 25.16L28.52 24.82L13.08 9.33L12.98 9.41Z" fill="url(#paint_linear_153_634_0)" fill-opacity="1.000000" fill-rule="evenodd"/>
		<path d="M33.65 30.34L28.5 25.18L28.5 24.81L33.65 19.65L33.76 19.72L39.84 23.19C41.58 24.18 41.58 25.8 39.84 26.8L33.76 30.27L33.65 30.34Z" fill="url(#paint_linear_153_635_0)" fill-opacity="1.000000" fill-rule="evenodd"/>
		<path d="M33.76 30.27L28.5 25L12.98 40.58C13.55 41.19 14.51 41.26 15.57 40.66L33.76 30.27Z" fill="url(#paint_linear_153_636_0)" fill-opacity="1.000000" fill-rule="evenodd"/>
		<path d="M33.76 19.72L15.57 9.34C14.51 8.73 13.55 8.82 12.98 9.43L28.5 25L33.76 19.72Z" fill="url(#paint_linear_153_637_0)" fill-opacity="1.000000" fill-rule="evenodd"/>
		<g opacity="0.200000">
			<path d="M33.65 30.16L15.58 40.47C14.57 41.05 13.67 41.01 13.09 40.48L13 40.58L13.09 40.66C13.67 41.19 14.57 41.23 15.58 40.65L33.77 30.27L33.65 30.16Z" fill="#000000" fill-opacity="1.000000" fill-rule="evenodd"/>
		</g>
		<g opacity="0.120000">
			<path d="M39.84 26.62L33.63 30.16L33.74 30.27L39.83 26.8C40.7 26.3 41.13 25.65 41.13 25C41.08 25.59 40.63 26.16 39.84 26.62Z" fill="#000000" fill-opacity="1.000000" fill-rule="evenodd"/>
		</g>
		<g opacity="0.250000">
			<path d="M15.57 9.52L39.84 23.37C40.63 23.82 41.08 24.4 41.14 25C41.14 24.34 40.72 23.69 39.84 23.19L15.57 9.34C13.83 8.34 12.42 9.18 12.42 11.18L12.42 11.36C12.42 9.36 13.83 8.54 15.57 9.52Z" fill="#FFFFFF" fill-opacity="1.000000" fill-rule="evenodd"/>
		</g>
	</g>
	<rect rx="4.500000" width="167.750000" height="49.000000" transform="translate(0.500000 0.500000)" stroke="#FFFFFF" stroke-opacity="1.000000" stroke-width="1.000000"/>
</svg>
