<svg width="22.000000" height="20.000000" viewBox="0 0 22 20" fill="none" xmlns="http://www.w3.org/2000/svg" xmlns:xlink="http://www.w3.org/1999/xlink">
	<desc>
			Created with Pixso.
	</desc>
	<defs/>
	<path id="Vector" d="M19 0L9 0C8.2 0 7.44 0.31 6.87 0.87C6.31 1.44 6 2.2 6 3L6 10C6 10.79 6.31 11.55 6.87 12.12C7.44 12.68 8.2 13 9 13L19 13C19.79 13 20.55 12.68 21.12 12.12C21.68 11.55 22 10.79 22 10L22 3C22 2.2 21.68 1.44 21.12 0.87C20.55 0.31 19.79 0 19 0ZM20 10C20 10.26 19.89 10.51 19.7 10.7C19.51 10.89 19.26 11 19 11L9 11C8.73 11 8.48 10.89 8.29 10.7C8.1 10.51 8 10.26 8 10L8 3C8 2.73 8.1 2.48 8.29 2.29C8.48 2.1 8.73 2 9 2L19 2C19.26 2 19.51 2.1 19.7 2.29C19.89 2.48 20 2.73 20 3L20 10ZM16.5 6C16.12 6 15.77 6.14 15.5 6.39C15.28 6.19 15.01 6.06 14.73 6.01C14.44 5.97 14.14 6.01 13.88 6.12C13.61 6.24 13.39 6.43 13.23 6.68C13.07 6.92 12.99 7.2 12.99 7.5C12.99 7.79 13.07 8.07 13.23 8.31C13.39 8.56 13.61 8.75 13.88 8.87C14.14 8.98 14.44 9.02 14.73 8.98C15.01 8.93 15.28 8.8 15.5 8.6C15.68 8.77 15.89 8.89 16.13 8.95C16.37 9.01 16.61 9.01 16.85 8.95C17.09 8.9 17.31 8.78 17.49 8.62C17.68 8.46 17.82 8.26 17.9 8.03C17.99 7.8 18.02 7.56 17.99 7.32C17.96 7.07 17.88 6.84 17.74 6.64C17.6 6.44 17.41 6.28 17.2 6.16C16.98 6.05 16.74 5.99 16.5 6ZM15 15C14.73 15 14.48 15.1 14.29 15.29C14.1 15.48 14 15.73 14 16L14 17C14 17.26 13.89 17.51 13.7 17.7C13.51 17.89 13.26 18 13 18L3 18C2.73 18 2.48 17.89 2.29 17.7C2.1 17.51 2 17.26 2 17L2 13L3 13C3.26 13 3.51 12.89 3.7 12.7C3.89 12.51 4 12.26 4 12C4 11.73 3.89 11.48 3.7 11.29C3.51 11.1 3.26 11 3 11L2 11L2 10C2 9.73 2.1 9.48 2.29 9.29C2.48 9.1 2.73 9 3 9C3.26 9 3.51 8.89 3.7 8.7C3.89 8.51 4 8.26 4 8C4 7.73 3.89 7.48 3.7 7.29C3.51 7.1 3.26 7 3 7C2.2 7 1.44 7.31 0.87 7.87C0.31 8.44 0 9.2 0 10L0 17C0 17.79 0.31 18.55 0.87 19.12C1.44 19.68 2.2 20 3 20L13 20C13.79 20 14.55 19.68 15.12 19.12C15.68 18.55 16 17.79 16 17L16 16C16 15.73 15.89 15.48 15.7 15.29C15.51 15.1 15.26 15 15 15ZM5 16L6 16C6.26 16 6.51 15.89 6.7 15.7C6.89 15.51 7 15.26 7 15C7 14.73 6.89 14.48 6.7 14.29C6.51 14.1 6.26 14 6 14L5 14C4.73 14 4.48 14.1 4.29 14.29C4.1 14.48 4 14.73 4 15C4 15.26 4.1 15.51 4.29 15.7C4.48 15.89 4.73 16 5 16Z" fill="#000000" fill-opacity="1.000000" fill-rule="nonzero"/>
</svg>
