<svg width="20.000000" height="15.000000" viewBox="0 0 20 15" fill="none" xmlns="http://www.w3.org/2000/svg" xmlns:xlink="http://www.w3.org/1999/xlink">
	<desc>
			Created with Pixso.
	</desc>
	<defs/>
	<path id="Vector" d="M5 10L8 10C8.26 10 8.51 9.89 8.7 9.7C8.89 9.51 9 9.26 9 9C9 8.73 8.89 8.48 8.7 8.29C8.51 8.1 8.26 8 8 8L5 8C4.73 8 4.48 8.1 4.29 8.29C4.1 8.48 4 8.73 4 9C4 9.26 4.1 9.51 4.29 9.7C4.48 9.89 4.73 10 5 10ZM17 0L3 0C2.2 0 1.44 0.31 0.87 0.87C0.31 1.44 0 2.2 0 3L0 12C0 12.79 0.31 13.55 0.87 14.12C1.44 14.68 2.2 15 3 15L17 15C17.79 15 18.55 14.68 19.12 14.12C19.68 13.55 20 12.79 20 12L20 3C20 2.2 19.68 1.44 19.12 0.87C18.55 0.31 17.79 0 17 0ZM18 12C18 12.26 17.89 12.51 17.7 12.7C17.51 12.89 17.26 13 17 13L3 13C2.73 13 2.48 12.89 2.29 12.7C2.1 12.51 2 12.26 2 12L2 6L18 6L18 12ZM18 4L2 4L2 3C2 2.73 2.1 2.48 2.29 2.29C2.48 2.1 2.73 2 3 2L17 2C17.26 2 17.51 2.1 17.7 2.29C17.89 2.48 18 2.73 18 3L18 4Z" fill="#000000" fill-opacity="1.000000" fill-rule="nonzero"/>
</svg>
