<svg width="20.000000" height="20.000000" viewBox="0 0 20 20" fill="none" xmlns="http://www.w3.org/2000/svg" xmlns:xlink="http://www.w3.org/1999/xlink">
	<desc>
			Created with Pixso.
	</desc>
	<defs/>
	<path id="Vector" d="M10 9C9.4 9 8.82 9.17 8.33 9.5C7.83 9.83 7.45 10.3 7.22 10.85C7 11.4 6.94 12 7.05 12.58C7.17 13.16 7.45 13.7 7.87 14.12C8.29 14.54 8.83 14.82 9.41 14.94C9.99 15.05 10.59 14.99 11.14 14.77C11.69 14.54 12.16 14.16 12.49 13.66C12.82 13.17 13 12.59 13 12C13 11.2 12.68 10.44 12.12 9.87C11.55 9.31 10.79 9 10 9ZM10 13C9.8 13 9.6 12.94 9.44 12.83C9.27 12.72 9.15 12.56 9.07 12.38C9 12.2 8.98 11.99 9.01 11.8C9.05 11.61 9.15 11.43 9.29 11.29C9.43 11.15 9.61 11.05 9.8 11.01C9.99 10.98 10.2 11 10.38 11.07C10.56 11.15 10.72 11.28 10.83 11.44C10.94 11.6 11 11.8 11 12C11 12.26 10.89 12.51 10.7 12.7C10.51 12.89 10.26 13 10 13ZM17 4L14 4L14 3C14 2.2 13.68 1.44 13.12 0.87C12.55 0.31 11.79 0 11 0L9 0C8.2 0 7.44 0.31 6.87 0.87C6.31 1.44 6 2.2 6 3L6 4L3 4C2.2 4 1.44 4.31 0.87 4.87C0.31 5.44 0 6.2 0 7L0 17C0 17.79 0.31 18.55 0.87 19.12C1.44 19.68 2.2 20 3 20L17 20C17.79 20 18.55 19.68 19.12 19.12C19.68 18.55 20 17.79 20 17L20 7C20 6.2 19.68 5.44 19.12 4.87C18.55 4.31 17.79 4 17 4ZM8 3C8 2.73 8.1 2.48 8.29 2.29C8.48 2.1 8.73 2 9 2L11 2C11.26 2 11.51 2.1 11.7 2.29C11.89 2.48 12 2.73 12 3L12 4L8 4L8 3ZM2 7C2 6.73 2.1 6.48 2.29 6.29C2.48 6.1 2.73 6 3 6L4 6C4 6.53 3.78 7.03 3.41 7.41C3.03 7.78 2.53 8 2 8L2 7ZM3 18C2.73 18 2.48 17.89 2.29 17.7C2.1 17.51 2 17.26 2 17L2 16C2.53 16 3.03 16.21 3.41 16.58C3.78 16.96 4 17.46 4 18L3 18ZM18 17C18 17.26 17.89 17.51 17.7 17.7C17.51 17.89 17.26 18 17 18L16 18C16 17.46 16.21 16.96 16.58 16.58C16.96 16.21 17.46 16 18 16L18 17ZM18 14C16.93 14 15.92 14.42 15.17 15.17C14.42 15.92 14 16.93 14 18L6 18C6 16.93 5.57 15.92 4.82 15.17C4.07 14.42 3.06 14 2 14L2 10C3.06 10 4.07 9.57 4.82 8.82C5.57 8.07 6 7.06 6 6L14 6C14 7.06 14.42 8.07 15.17 8.82C15.92 9.57 16.93 10 18 10L18 14ZM18 8C17.46 8 16.96 7.78 16.58 7.41C16.21 7.03 16 6.53 16 6L17 6C17.26 6 17.51 6.1 17.7 6.29C17.89 6.48 18 6.73 18 7L18 8Z" fill="#000000" fill-opacity="1.000000" fill-rule="nonzero"/>
</svg>
