<svg width="20.011444" height="17.578003" viewBox="0 0 20.0114 17.578" fill="none" xmlns="http://www.w3.org/2000/svg" xmlns:xlink="http://www.w3.org/1999/xlink">
	<desc>
			Created with Pixso.
	</desc>
	<defs/>
	<path id="Vector" d="M18.19 6L4.19 0.22C3.66 0 3.08 -0.06 2.51 0.04C1.95 0.14 1.43 0.4 1 0.79C0.58 1.18 0.28 1.68 0.14 2.24C-0.01 2.79 0.01 3.38 0.19 3.92L1.73 8.77L0.15 13.62C-0.03 14.17 -0.05 14.76 0.09 15.32C0.23 15.88 0.53 16.38 0.96 16.77C1.5 17.28 2.22 17.56 2.96 17.57C3.35 17.57 3.74 17.49 4.11 17.34L18.16 11.56C18.71 11.34 19.17 10.95 19.5 10.46C19.83 9.96 20.01 9.39 20.01 8.79C20.01 8.2 19.83 7.62 19.5 7.13C19.17 6.64 18.71 6.25 18.16 6.02L18.19 6ZM3.38 15.47C3.2 15.55 3.01 15.57 2.82 15.53C2.63 15.5 2.46 15.41 2.32 15.28C2.19 15.16 2.09 15 2.04 14.82C2 14.64 2 14.46 2.05 14.28L3.51 9.77L17.24 9.77L3.38 15.47ZM3.51 7.77L2.02 3.3C1.97 3.13 1.97 2.94 2.01 2.77C2.06 2.59 2.16 2.43 2.29 2.3C2.38 2.2 2.5 2.13 2.62 2.07C2.75 2.02 2.88 1.99 3.02 1.99C3.15 1.99 3.29 2.02 3.41 2.07L17.24 7.77L3.51 7.77Z" fill="#000000" fill-opacity="1.000000" fill-rule="nonzero"/>
</svg>
