<svg width="22.000000" height="20.000000" viewBox="0 0 22 20" fill="none" xmlns="http://www.w3.org/2000/svg" xmlns:xlink="http://www.w3.org/1999/xlink">
	<desc>
			Created with Pixso.
	</desc>
	<defs/>
	<path id="Vector" d="M11 10C10.4 10 9.82 10.17 9.33 10.5C8.83 10.83 8.45 11.3 8.22 11.85C8 12.4 7.94 13 8.05 13.58C8.17 14.16 8.45 14.7 8.87 15.12C9.29 15.54 9.83 15.82 10.41 15.94C10.99 16.05 11.59 15.99 12.14 15.77C12.69 15.54 13.16 15.16 13.49 14.66C13.82 14.17 14 13.59 14 13C14 12.2 13.68 11.44 13.12 10.87C12.55 10.31 11.79 10 11 10ZM11 14C10.8 14 10.6 13.94 10.44 13.83C10.28 13.72 10.15 13.56 10.07 13.38C10 13.2 9.98 12.99 10.01 12.8C10.05 12.61 10.15 12.43 10.29 12.29C10.43 12.15 10.61 12.05 10.8 12.01C10.99 11.98 11.2 12 11.38 12.07C11.56 12.15 11.72 12.28 11.83 12.44C11.94 12.6 12 12.8 12 13C12 13.26 11.89 13.51 11.7 13.7C11.51 13.89 11.26 14 11 14ZM10.29 7.7C10.38 7.8 10.49 7.87 10.62 7.92C10.73 7.97 10.86 8 11 8C11.13 8 11.26 7.97 11.38 7.92C11.5 7.87 11.61 7.8 11.71 7.7L14 5.45C14.19 5.26 14.3 5 14.3 4.72C14.3 4.45 14.19 4.19 14 4C13.8 3.8 13.54 3.69 13.27 3.69C12.99 3.69 12.73 3.8 12.54 4L12 4.58L12 1C12 0.73 11.89 0.48 11.7 0.29C11.51 0.1 11.26 0 11 0C10.73 0 10.48 0.1 10.29 0.29C10.1 0.48 10 0.73 10 1L10 4.58L9.46 4C9.26 3.8 9 3.69 8.72 3.69C8.45 3.69 8.19 3.8 8 4C7.8 4.19 7.69 4.45 7.69 4.72C7.69 5 7.8 5.26 8 5.45L10.29 7.7ZM18 13C18 12.8 17.94 12.6 17.83 12.44C17.72 12.28 17.56 12.15 17.38 12.07C17.2 12 16.99 11.98 16.8 12.01C16.61 12.05 16.43 12.15 16.29 12.29C16.15 12.43 16.05 12.61 16.01 12.8C15.98 12.99 16 13.2 16.07 13.38C16.15 13.56 16.28 13.72 16.44 13.83C16.6 13.94 16.8 14 17 14C17.26 14 17.51 13.89 17.7 13.7C17.89 13.51 18 13.26 18 13ZM19 6L16 6C15.73 6 15.48 6.1 15.29 6.29C15.1 6.48 15 6.73 15 7C15 7.26 15.1 7.51 15.29 7.7C15.48 7.89 15.73 8 16 8L19 8C19.26 8 19.51 8.1 19.7 8.29C19.89 8.48 20 8.73 20 9L20 17C20 17.26 19.89 17.51 19.7 17.7C19.51 17.89 19.26 18 19 18L3 18C2.73 18 2.48 17.89 2.29 17.7C2.1 17.51 2 17.26 2 17L2 9C2 8.73 2.1 8.48 2.29 8.29C2.48 8.1 2.73 8 3 8L6 8C6.26 8 6.51 7.89 6.7 7.7C6.89 7.51 7 7.26 7 7C7 6.73 6.89 6.48 6.7 6.29C6.51 6.1 6.26 6 6 6L3 6C2.2 6 1.44 6.31 0.87 6.87C0.31 7.44 0 8.2 0 9L0 17C0 17.79 0.31 18.55 0.87 19.12C1.44 19.68 2.2 20 3 20L19 20C19.79 20 20.55 19.68 21.12 19.12C21.68 18.55 22 17.79 22 17L22 9C22 8.2 21.68 7.44 21.12 6.87C20.55 6.31 19.79 6 19 6ZM4 13C4 13.19 4.05 13.39 4.16 13.55C4.27 13.72 4.43 13.84 4.61 13.92C4.8 13.99 5 14.01 5.19 13.98C5.38 13.94 5.56 13.84 5.7 13.7C5.84 13.56 5.94 13.38 5.98 13.19C6.01 13 5.99 12.8 5.92 12.61C5.84 12.43 5.72 12.27 5.55 12.16C5.39 12.05 5.19 12 5 12C4.73 12 4.48 12.1 4.29 12.29C4.1 12.48 4 12.73 4 13Z" fill="#000000" fill-opacity="1.000000" fill-rule="nonzero"/>
</svg>
